<?xml version="1.0" standalone="no"?>
<!DOCTYPE svg PUBLIC "-//W3C//DTD SVG 20010904//EN"
 "http://www.w3.org/TR/2001/REC-SVG-20010904/DTD/svg10.dtd">
<svg version="1.0" xmlns="http://www.w3.org/2000/svg"
 width="800.000000pt" height="800.000000pt" viewBox="0 0 800.000000 800.000000"
 preserveAspectRatio="xMidYMid meet">

<g transform="translate(0.000000,800.000000) scale(0.100000,-0.100000)"
fill="#000000" stroke="none">
<path d="M4088 6928 c-30 -62 -333 -692 -673 -1400 -340 -709 -622 -1288 -626
-1288 -4 0 -372 625 -818 1389 l-812 1389 -168 -95 -169 -94 875 -1504 875
-1505 -557 -1163 c-306 -639 -559 -1168 -562 -1174 -4 -10 43 -13 214 -13
l219 0 1200 2570 c659 1413 1202 2570 1205 2570 3 0 279 -573 612 -1272 l607
-1273 -88 -3 c-48 -2 -456 1 -907 7 -451 5 -820 9 -821 8 -1 -1 -4 -86 -7
-188 l-7 -186 1206 -7 c664 -4 1207 -6 1209 -4 2 3 -1613 3312 -1628 3336 -6
9 -51 12 -166 12 l-158 0 -55 -112z"/>
<path d="M5840 3257 c0 -1 193 -403 429 -892 l429 -890 196 -3 195 -2 -22 48
c-12 26 -197 429 -412 894 l-390 847 -212 1 c-117 0 -213 -1 -213 -3z"/>
</g>
</svg>
